<mxfile host="app.diagrams.net" agent="Mozilla/5.0 (Windows NT 10.0; Win64; x64) AppleWebKit/537.36 (KHTML, like Gecko) Chrome/134.0.0.0 Safari/537.36" version="26.1.1">
  <diagram name="Page-1" id="yfqxFrRXsj3E6nU-Ra42">
    <mxGraphModel dx="794" dy="458" grid="1" gridSize="10" guides="1" tooltips="1" connect="1" arrows="1" fold="1" page="1" pageScale="1" pageWidth="827" pageHeight="1169" math="0" shadow="0">
      <root>
        <mxCell id="0" />
        <mxCell id="1" parent="0" />
        <mxCell id="J6c2QFONw4xOBYZF9_YX-15" style="edgeStyle=orthogonalEdgeStyle;rounded=0;orthogonalLoop=1;jettySize=auto;html=1;exitX=1;exitY=0.5;exitDx=0;exitDy=0;entryX=0;entryY=0.5;entryDx=0;entryDy=0;" edge="1" parent="1" source="J6c2QFONw4xOBYZF9_YX-1" target="J6c2QFONw4xOBYZF9_YX-5">
          <mxGeometry relative="1" as="geometry" />
        </mxCell>
        <mxCell id="J6c2QFONw4xOBYZF9_YX-1" value="" style="rounded=0;whiteSpace=wrap;html=1;fillColor=#6a00ff;strokeColor=#3700CC;fontColor=#ffffff;" vertex="1" parent="1">
          <mxGeometry x="80" y="150" width="120" height="60" as="geometry" />
        </mxCell>
        <mxCell id="J6c2QFONw4xOBYZF9_YX-2" value="Operating System" style="text;html=1;align=center;verticalAlign=middle;whiteSpace=wrap;rounded=0;" vertex="1" parent="1">
          <mxGeometry x="110" y="165" width="60" height="30" as="geometry" />
        </mxCell>
        <mxCell id="J6c2QFONw4xOBYZF9_YX-19" style="edgeStyle=orthogonalEdgeStyle;rounded=0;orthogonalLoop=1;jettySize=auto;html=1;exitX=1;exitY=0.5;exitDx=0;exitDy=0;" edge="1" parent="1" source="J6c2QFONw4xOBYZF9_YX-5">
          <mxGeometry relative="1" as="geometry">
            <mxPoint x="370" y="180" as="targetPoint" />
          </mxGeometry>
        </mxCell>
        <mxCell id="J6c2QFONw4xOBYZF9_YX-5" value="" style="ellipse;whiteSpace=wrap;html=1;aspect=fixed;fillColor=#f8cecc;strokeColor=#b85450;" vertex="1" parent="1">
          <mxGeometry x="260" y="140" width="80" height="80" as="geometry" />
        </mxCell>
        <mxCell id="J6c2QFONw4xOBYZF9_YX-17" value="" style="edgeStyle=orthogonalEdgeStyle;rounded=0;orthogonalLoop=1;jettySize=auto;html=1;" edge="1" parent="1" source="J6c2QFONw4xOBYZF9_YX-7" target="J6c2QFONw4xOBYZF9_YX-16">
          <mxGeometry relative="1" as="geometry">
            <Array as="points">
              <mxPoint x="390" y="180" />
              <mxPoint x="390" y="180" />
            </Array>
          </mxGeometry>
        </mxCell>
        <mxCell id="J6c2QFONw4xOBYZF9_YX-7" value="Kernal" style="text;html=1;align=center;verticalAlign=middle;whiteSpace=wrap;rounded=0;" vertex="1" parent="1">
          <mxGeometry x="270" y="171.88" width="60" height="30" as="geometry" />
        </mxCell>
        <mxCell id="J6c2QFONw4xOBYZF9_YX-16" value="Device Drivers" style="rounded=1;whiteSpace=wrap;html=1;fillColor=#e1d5e7;strokeColor=#9673a6;" vertex="1" parent="1">
          <mxGeometry x="440" y="150" width="120" height="60" as="geometry" />
        </mxCell>
        <mxCell id="J6c2QFONw4xOBYZF9_YX-32" style="edgeStyle=orthogonalEdgeStyle;rounded=0;orthogonalLoop=1;jettySize=auto;html=1;entryX=1;entryY=0.5;entryDx=0;entryDy=0;" edge="1" parent="1" source="J6c2QFONw4xOBYZF9_YX-22" target="J6c2QFONw4xOBYZF9_YX-29">
          <mxGeometry relative="1" as="geometry">
            <Array as="points">
              <mxPoint x="530" y="320" />
            </Array>
          </mxGeometry>
        </mxCell>
        <mxCell id="J6c2QFONw4xOBYZF9_YX-22" value="" style="verticalLabelPosition=bottom;sketch=0;aspect=fixed;html=1;verticalAlign=top;strokeColor=none;align=center;outlineConnect=0;shape=mxgraph.citrix.printer;" vertex="1" parent="1">
          <mxGeometry x="490" y="370" width="70" height="70" as="geometry" />
        </mxCell>
        <mxCell id="J6c2QFONw4xOBYZF9_YX-29" value="Dug dug Printer Driver" style="rounded=1;whiteSpace=wrap;html=1;fillColor=#e1d5e7;strokeColor=#9673a6;" vertex="1" parent="1">
          <mxGeometry x="300" y="290" width="100" height="50" as="geometry" />
        </mxCell>
        <mxCell id="J6c2QFONw4xOBYZF9_YX-30" value="Dug Dug Printer" style="text;html=1;align=center;verticalAlign=middle;whiteSpace=wrap;rounded=0;" vertex="1" parent="1">
          <mxGeometry x="414" y="410" width="60" height="30" as="geometry" />
        </mxCell>
        <mxCell id="J6c2QFONw4xOBYZF9_YX-41" style="edgeStyle=orthogonalEdgeStyle;rounded=0;orthogonalLoop=1;jettySize=auto;html=1;entryX=1;entryY=0.5;entryDx=0;entryDy=0;" edge="1" parent="1" source="J6c2QFONw4xOBYZF9_YX-33" target="J6c2QFONw4xOBYZF9_YX-16">
          <mxGeometry relative="1" as="geometry">
            <mxPoint x="570" y="180" as="targetPoint" />
          </mxGeometry>
        </mxCell>
        <mxCell id="J6c2QFONw4xOBYZF9_YX-33" value="" style="image;html=1;image=img/lib/clip_art/computers/Monitor_128x128.png" vertex="1" parent="1">
          <mxGeometry x="693" y="280" width="40" height="70" as="geometry" />
        </mxCell>
        <mxCell id="J6c2QFONw4xOBYZF9_YX-34" value="" style="sketch=0;outlineConnect=0;fontColor=#232F3E;gradientColor=none;fillColor=#ED7100;strokeColor=none;dashed=0;verticalLabelPosition=bottom;verticalAlign=top;align=center;html=1;fontSize=12;fontStyle=0;aspect=fixed;pointerEvents=1;shape=mxgraph.aws4.r5n_instance;" vertex="1" parent="1">
          <mxGeometry x="687" y="92" width="48" height="48" as="geometry" />
        </mxCell>
        <mxCell id="J6c2QFONw4xOBYZF9_YX-42" style="edgeStyle=orthogonalEdgeStyle;rounded=0;orthogonalLoop=1;jettySize=auto;html=1;entryX=1;entryY=0.5;entryDx=0;entryDy=0;" edge="1" parent="1" source="J6c2QFONw4xOBYZF9_YX-35" target="J6c2QFONw4xOBYZF9_YX-16">
          <mxGeometry relative="1" as="geometry">
            <mxPoint x="660" y="310" as="targetPoint" />
            <Array as="points">
              <mxPoint x="600" y="405" />
              <mxPoint x="600" y="180" />
            </Array>
          </mxGeometry>
        </mxCell>
        <mxCell id="J6c2QFONw4xOBYZF9_YX-35" value="" style="verticalLabelPosition=bottom;html=1;verticalAlign=top;align=center;strokeColor=none;fillColor=#00BEF2;shape=mxgraph.azure.computer;pointerEvents=1;" vertex="1" parent="1">
          <mxGeometry x="690" y="382.5" width="50" height="45" as="geometry" />
        </mxCell>
        <mxCell id="J6c2QFONw4xOBYZF9_YX-36" value="" style="sketch=0;pointerEvents=1;shadow=0;dashed=0;html=1;strokeColor=none;fillColor=#434445;aspect=fixed;labelPosition=center;verticalLabelPosition=bottom;verticalAlign=top;align=center;outlineConnect=0;shape=mxgraph.vvd.cpu;" vertex="1" parent="1">
          <mxGeometry x="686" y="200" width="50" height="50" as="geometry" />
        </mxCell>
        <mxCell id="J6c2QFONw4xOBYZF9_YX-37" value="RAm" style="text;html=1;align=center;verticalAlign=middle;whiteSpace=wrap;rounded=0;" vertex="1" parent="1">
          <mxGeometry x="683" y="140" width="60" height="30" as="geometry" />
        </mxCell>
        <mxCell id="J6c2QFONw4xOBYZF9_YX-38" value="CPU" style="text;html=1;align=center;verticalAlign=middle;whiteSpace=wrap;rounded=0;" vertex="1" parent="1">
          <mxGeometry x="690" y="250" width="60" height="30" as="geometry" />
        </mxCell>
        <mxCell id="J6c2QFONw4xOBYZF9_YX-39" value="DELL" style="text;html=1;align=center;verticalAlign=middle;whiteSpace=wrap;rounded=0;" vertex="1" parent="1">
          <mxGeometry x="687" y="340" width="60" height="30" as="geometry" />
        </mxCell>
        <mxCell id="J6c2QFONw4xOBYZF9_YX-40" value="HP" style="text;html=1;align=center;verticalAlign=middle;whiteSpace=wrap;rounded=0;" vertex="1" parent="1">
          <mxGeometry x="693" y="430" width="60" height="30" as="geometry" />
        </mxCell>
        <mxCell id="J6c2QFONw4xOBYZF9_YX-46" style="edgeStyle=orthogonalEdgeStyle;rounded=0;orthogonalLoop=1;jettySize=auto;html=1;entryX=0.572;entryY=-0.022;entryDx=0;entryDy=0;entryPerimeter=0;" edge="1" parent="1" source="J6c2QFONw4xOBYZF9_YX-5" target="J6c2QFONw4xOBYZF9_YX-29">
          <mxGeometry relative="1" as="geometry" />
        </mxCell>
        <mxCell id="J6c2QFONw4xOBYZF9_YX-47" value="" style="image;aspect=fixed;html=1;points=[];align=center;fontSize=12;image=img/lib/azure2/general/Heart.svg;" vertex="1" parent="1">
          <mxGeometry x="288" y="150" width="24" height="22.5" as="geometry" />
        </mxCell>
        <mxCell id="J6c2QFONw4xOBYZF9_YX-48" value="" style="sketch=0;outlineConnect=0;fontColor=#232F3E;gradientColor=none;fillColor=#232F3D;strokeColor=none;dashed=0;verticalLabelPosition=bottom;verticalAlign=top;align=center;html=1;fontSize=12;fontStyle=0;aspect=fixed;pointerEvents=1;shape=mxgraph.aws4.authenticated_user;" vertex="1" parent="1">
          <mxGeometry x="108" y="340" width="54" height="54" as="geometry" />
        </mxCell>
        <mxCell id="J6c2QFONw4xOBYZF9_YX-50" style="edgeStyle=orthogonalEdgeStyle;rounded=0;orthogonalLoop=1;jettySize=auto;html=1;entryX=0.5;entryY=1;entryDx=0;entryDy=0;" edge="1" parent="1" source="J6c2QFONw4xOBYZF9_YX-49" target="J6c2QFONw4xOBYZF9_YX-1">
          <mxGeometry relative="1" as="geometry" />
        </mxCell>
        <mxCell id="J6c2QFONw4xOBYZF9_YX-49" value="" style="verticalLabelPosition=bottom;verticalAlign=top;html=1;shadow=0;dashed=0;strokeWidth=1;shape=mxgraph.android.keyboard;sketch=0;" vertex="1" parent="1">
          <mxGeometry x="100" y="300" width="70" height="30" as="geometry" />
        </mxCell>
        <mxCell id="J6c2QFONw4xOBYZF9_YX-51" value="Print command" style="text;html=1;align=center;verticalAlign=middle;whiteSpace=wrap;rounded=0;" vertex="1" parent="1">
          <mxGeometry x="70" y="260" width="60" height="30" as="geometry" />
        </mxCell>
        <mxCell id="J6c2QFONw4xOBYZF9_YX-52" value="" style="swimlane;startSize=0;" vertex="1" parent="1">
          <mxGeometry x="60" y="80" width="710" height="370" as="geometry" />
        </mxCell>
      </root>
    </mxGraphModel>
  </diagram>
</mxfile>
